<?xml version="1.0" encoding="UTF-8"?>
<!DOCTYPE svg PUBLIC "-//W3C//DTD SVG 1.1//EN" "http://www.w3.org/Graphics/SVG/1.1/DTD/svg11.dtd">
<!-- Creator: CorelDRAW X5 -->
<svg xmlns="http://www.w3.org/2000/svg" xml:space="preserve" width="40.139mm" height="58.565mm" style="shape-rendering:geometricPrecision; text-rendering:geometricPrecision; image-rendering:optimizeQuality; fill-rule:evenodd; clip-rule:evenodd"
viewBox="0 0 4014 5857"
 xmlns:xlink="http://www.w3.org/1999/xlink">
 <defs>
  <style type="text/css">
   <![CDATA[
    .fil0 {fill:white}
    .fil2 {fill:black;fill-rule:nonzero}
    .fil1 {fill:#32A041;fill-rule:nonzero}
    .fil3 {fill:#C8191E;fill-rule:nonzero}
   ]]>
  </style>
 </defs>
 <g id="Camada_x0020_1">
  <metadata id="CorelCorpID_0Corel-Layer"/>
  <g id="_202057320">
   <path class="fil0" d="M38 0l3937 0c21,0 38,17 38,38l0 5780c0,21 -17,38 -38,38l-3937 0c-21,0 -38,-17 -38,-38l0 -5780c0,-21 17,-38 38,-38z"/>
   <g>
    <path class="fil1" d="M3622 4048c0,6 -7,11 -15,11l-3200 0c-8,0 -15,-5 -15,-11 0,-6 7,-11 15,-11l3200 0c8,0 15,5 15,11z"/>
    <path class="fil2" d="M670 4242c-33,0 -58,11 -77,32 -19,22 -28,51 -28,89 0,39 9,69 27,90 18,21 44,32 78,32 21,0 44,-4 71,-11l0 30c-20,8 -46,12 -76,12 -44,0 -77,-13 -101,-40 -24,-26 -36,-64 -36,-113 0,-31 6,-57 17,-80 11,-23 28,-41 49,-53 21,-12 47,-19 76,-19 31,0 58,6 81,17l-15 30c-22,-10 -45,-16 -67,-16zm266 269l-7 -32 -2 0c-11,14 -22,23 -33,28 -11,5 -25,7 -41,7 -22,0 -39,-6 -52,-17 -12,-11 -19,-27 -19,-48 0,-45 36,-68 108,-70l38 -1 0 -14c0,-17 -4,-30 -11,-39 -7,-8 -19,-12 -36,-12 -18,0 -39,6 -63,17l-10 -26c11,-6 23,-11 36,-14 13,-3 26,-5 39,-5 26,0 46,6 59,18 13,12 19,31 19,56l0 151 -25 0zm-76 -24c21,0 37,-6 49,-17 12,-11 18,-27 18,-48l0 -20 -34 1c-27,1 -46,5 -58,12 -12,7 -18,19 -18,34 0,12 4,21 11,28 7,6 18,9 31,9zm453 24l0 -144c0,-18 -4,-31 -11,-40 -8,-9 -19,-13 -35,-13 -21,0 -36,6 -46,18 -10,12 -15,31 -15,55l0 124 -34 0 0 -144c0,-18 -4,-31 -11,-40 -8,-9 -19,-13 -35,-13 -21,0 -36,6 -46,19 -10,13 -15,33 -15,62l0 116 -34 0 0 -222 27 0 5 30 2 0c6,-11 15,-19 27,-25 12,-6 24,-9 39,-9 35,0 57,13 68,38l2 0c7,-12 16,-21 29,-27 13,-7 27,-10 43,-10 25,0 44,6 56,19 12,13 19,33 19,62l0 145 -34 0zm206 4c-14,0 -28,-3 -40,-8 -12,-5 -22,-14 -30,-25l-2 0c2,13 2,25 2,37l0 91 -34 0 0 -321 27 0 5 30 2 0c9,-12 19,-21 30,-26 11,-5 25,-8 40,-8 29,0 52,10 68,30 16,20 24,48 24,85 0,36 -8,65 -24,85 -16,20 -39,30 -68,30zm-5 -201c-23,0 -39,6 -49,19 -10,13 -15,33 -16,60l0 8c0,31 5,53 16,67 10,13 27,20 50,20 19,0 34,-8 45,-23 11,-15 16,-37 16,-64 0,-28 -5,-49 -16,-64 -11,-15 -26,-22 -46,-22zm187 -24l0 144c0,18 4,32 12,40 8,9 21,13 39,13 23,0 40,-6 51,-19 11,-13 16,-33 16,-62l0 -116 34 0 0 222 -28 0 -5 -30 -2 0c-7,11 -16,19 -29,25 -12,6 -26,9 -42,9 -27,0 -47,-6 -61,-19 -13,-13 -20,-33 -20,-61l0 -145 34 0zm366 161c0,21 -8,37 -23,48 -15,11 -37,17 -65,17 -29,0 -52,-5 -69,-14l0 -31c11,5 22,10 34,13 12,3 24,5 35,5 18,0 31,-3 41,-8 9,-6 14,-14 14,-26 0,-9 -4,-16 -11,-22 -8,-6 -22,-13 -44,-22 -21,-8 -35,-14 -44,-20 -9,-6 -15,-12 -19,-20 -4,-7 -6,-16 -6,-26 0,-18 7,-32 22,-43 15,-10 35,-16 61,-16 24,0 47,5 70,15l-12 27c-22,-9 -43,-14 -61,-14 -16,0 -28,2 -36,7 -8,5 -12,12 -12,21 0,6 2,11 5,15 3,4 8,8 15,12 7,4 20,9 39,16 26,10 44,19 53,29 9,10 14,22 14,37zm294 -209c-33,0 -58,11 -77,32 -19,22 -28,51 -28,89 0,39 9,69 27,90 18,21 44,32 78,32 21,0 44,-4 71,-11l0 30c-20,8 -46,12 -76,12 -44,0 -77,-13 -101,-40 -24,-26 -36,-64 -36,-113 0,-31 6,-57 17,-80 11,-23 28,-41 49,-53 22,-12 47,-19 76,-19 31,0 58,6 81,17l-15 30c-22,-10 -45,-16 -67,-16zm161 47l0 144c0,18 4,32 12,40 8,9 21,13 39,13 23,0 40,-6 51,-19 11,-13 16,-33 16,-62l0 -116 34 0 0 222 -28 0 -5 -30 -2 0c-7,11 -16,19 -29,25 -12,6 -26,9 -42,9 -27,0 -47,-6 -61,-19 -13,-13 -20,-33 -20,-61l0 -145 34 0zm257 222l-34 0 0 -222 34 0 0 222zm-36 -282c0,-8 2,-13 6,-17 4,-4 9,-5 14,-5 5,0 10,2 14,5 4,4 6,9 6,17 0,8 -2,13 -6,17 -4,4 -9,6 -14,6 -6,0 -10,-2 -14,-6 -4,-4 -6,-9 -6,-17zm244 282l-7 -32 -2 0c-11,14 -22,23 -33,28 -11,5 -25,7 -41,7 -22,0 -39,-6 -52,-17 -12,-11 -19,-27 -19,-48 0,-45 36,-68 108,-70l38 -1 0 -14c0,-17 -4,-30 -11,-39 -7,-8 -19,-12 -36,-12 -18,0 -39,6 -63,17l-10 -26c11,-6 23,-11 36,-14 13,-3 26,-5 39,-5 26,0 46,6 59,18 13,12 19,31 19,56l0 151 -25 0zm-76 -24c21,0 37,-6 49,-17 12,-11 18,-27 18,-48l0 -20 -34 1c-27,1 -46,5 -58,12 -12,7 -18,19 -18,34 0,12 4,21 11,28 7,6 18,9 31,9zm273 -202c29,0 52,10 68,30 16,20 24,48 24,84 0,36 -8,65 -24,85 -16,20 -39,30 -68,30 -14,0 -28,-3 -40,-8 -12,-5 -22,-14 -30,-25l-2 0 -7 29 -24 0 0 -315 34 0 0 76c0,17 -1,32 -2,46l2 0c16,-22 39,-33 70,-33zm-5 28c-23,0 -39,7 -50,20 -10,13 -15,35 -15,66 0,31 5,53 16,67 10,13 27,20 50,20 21,0 36,-8 46,-22 10,-15 15,-37 15,-65 0,-29 -5,-50 -15,-65 -10,-14 -26,-21 -47,-21zm292 197l-7 -32 -2 0c-11,14 -22,23 -33,28 -11,5 -25,7 -41,7 -22,0 -39,-6 -52,-17 -12,-11 -19,-27 -19,-48 0,-45 36,-68 108,-70l38 -1 0 -14c0,-17 -4,-30 -11,-39 -7,-8 -19,-12 -36,-12 -18,0 -39,6 -63,17l-10 -26c11,-6 23,-11 36,-14 13,-3 26,-5 39,-5 26,0 46,6 59,18 13,12 19,31 19,56l0 151 -25 0zm-76 -24c21,0 37,-6 49,-17 12,-11 18,-27 18,-48l0 -20 -34 1c-27,1 -46,5 -58,12 -12,7 -18,19 -18,34 0,12 4,21 11,28 7,6 18,9 31,9zm-8 -232c7,-8 13,-19 21,-30 7,-12 13,-22 18,-31l41 0 0 4c-6,9 -15,20 -27,32 -12,13 -22,23 -31,30l-23 0 0 -5z"/>
    <path class="fil2" d="M1013 4722c-32,0 -57,10 -75,32 -18,21 -28,50 -28,86 0,38 9,67 27,87 18,20 43,31 76,31 20,0 43,-4 69,-11l0 29c-20,7 -45,11 -74,11 -42,0 -75,-13 -98,-39 -23,-26 -35,-62 -35,-110 0,-30 6,-56 17,-78 11,-22 27,-39 48,-52 21,-12 46,-18 74,-18 30,0 57,6 79,17l-14 29c-22,-10 -44,-15 -65,-15zm218 266c-32,0 -57,-10 -76,-29 -19,-19 -28,-46 -28,-81 0,-35 9,-62 26,-83 17,-20 40,-31 69,-31 27,0 49,9 64,27 16,18 24,41 24,70l0 21 -149 0c1,25 7,45 19,58 12,13 29,20 51,20 23,0 46,-5 69,-15l0 29c-12,5 -22,9 -33,11 -10,2 -23,3 -37,3zm-9 -196c-17,0 -31,6 -41,17 -10,11 -16,27 -18,47l113 0c0,-21 -5,-36 -14,-47 -9,-11 -22,-16 -39,-16zm177 192l-33 0 0 -306 33 0 0 306zm65 -21c0,-9 2,-15 6,-20 4,-5 10,-7 17,-7 8,0 14,2 18,7 4,5 6,11 6,20 0,9 -2,15 -6,20 -4,5 -10,7 -18,7 -7,0 -12,-2 -17,-6 -4,-4 -7,-11 -7,-20zm472 -123c0,46 -12,82 -35,109 -23,26 -56,40 -97,40 -42,0 -75,-13 -98,-39 -23,-26 -35,-62 -35,-110 0,-47 12,-83 35,-109 23,-26 56,-39 99,-39 41,0 74,13 97,39 23,26 35,62 35,109zm-230 0c0,39 8,69 25,89 17,20 41,30 72,30 32,0 56,-10 72,-30 16,-20 24,-50 24,-89 0,-39 -8,-68 -24,-88 -16,-20 -40,-30 -72,-30 -32,0 -56,10 -73,30 -17,20 -25,49 -25,88zm375 148c-31,0 -56,-10 -73,-29 -17,-19 -26,-46 -26,-82 0,-36 9,-64 26,-84 17,-20 42,-30 74,-30 10,0 21,1 31,3 10,2 19,5 24,8l-10 28c-7,-3 -15,-5 -24,-7 -9,-2 -16,-3 -23,-3 -44,0 -66,28 -66,84 0,27 5,47 16,61 11,14 27,21 48,21 18,0 36,-4 55,-12l0 29c-14,7 -33,11 -55,11zm176 -27c6,0 11,0 17,-1 5,-1 10,-2 13,-3l0 25c-4,2 -9,3 -16,4 -7,1 -13,2 -19,2 -42,0 -63,-22 -63,-66l0 -128 -31 0 0 -16 31 -14 14 -46 19 0 0 50 63 0 0 25 -63 0 0 127c0,13 3,23 9,30 6,7 15,10 25,10zm206 23l-6 -31 -2 0c-11,14 -22,23 -32,27 -11,5 -24,7 -40,7 -21,0 -38,-6 -50,-17 -12,-11 -18,-27 -18,-47 0,-44 35,-66 105,-68l37 -1 0 -13c0,-17 -4,-29 -11,-37 -7,-8 -19,-12 -35,-12 -18,0 -38,6 -61,17l-10 -25c11,-6 22,-10 35,-14 13,-3 25,-5 38,-5 26,0 45,6 57,17 12,11 19,30 19,55l0 147 -24 0zm-74 -23c20,0 36,-6 48,-17 12,-11 17,-27 17,-47l0 -19 -33 1c-26,1 -45,5 -56,12 -12,7 -17,18 -17,33 0,12 4,21 11,27 7,6 17,9 30,9zm131 -193l35 0 47 123c10,28 17,48 19,61l2 0c2,-7 5,-18 11,-34 5,-16 23,-66 53,-149l35 0 -93 246c-9,24 -20,42 -32,52 -12,10 -27,15 -45,15 -10,0 -20,-1 -30,-3l0 -26c7,2 15,2 24,2 22,0 38,-13 48,-38l12 -31 -87 -217zm385 187l-2 0c-15,22 -38,33 -68,33 -28,0 -50,-10 -66,-29 -16,-19 -24,-47 -24,-82 0,-36 8,-63 24,-83 16,-20 38,-30 66,-30 29,0 52,11 67,32l3 0 -1 -16 -1 -15 0 -88 33 0 0 306 -27 0 -4 -29zm-65 6c22,0 38,-6 49,-18 10,-12 15,-32 15,-59l0 -7c0,-31 -5,-52 -15,-65 -10,-13 -26,-20 -49,-20 -19,0 -34,7 -44,22 -10,15 -15,36 -15,63 0,28 5,48 15,62 10,14 25,21 45,21zm257 27c-32,0 -57,-10 -76,-29 -19,-19 -28,-46 -28,-81 0,-35 9,-62 26,-83 17,-20 40,-31 69,-31 27,0 49,9 64,27 16,18 24,41 24,70l0 21 -149 0c1,25 7,45 19,58 12,13 29,20 51,20 23,0 46,-5 69,-15l0 29c-12,5 -22,9 -33,11 -10,2 -23,3 -37,3zm-9 -196c-17,0 -31,6 -41,17 -10,11 -16,27 -18,47l113 0c0,-21 -5,-36 -14,-47 -9,-11 -22,-16 -39,-16zm-2313 746c-12,0 -22,-2 -29,-5l0 -29c9,3 19,4 29,4 13,0 23,-4 30,-12 7,-8 10,-19 10,-34l0 -288 33 0 0 285c0,25 -6,44 -19,58 -13,14 -31,21 -54,21zm331 -184c0,35 -9,63 -27,82 -18,20 -42,30 -74,30 -19,0 -36,-5 -51,-14 -15,-9 -27,-22 -35,-39 -8,-17 -12,-37 -12,-59 0,-35 9,-63 26,-82 18,-20 42,-29 73,-29 30,0 54,10 72,30 18,20 27,47 27,81zm-165 0c0,28 6,48 17,63 11,14 27,22 49,22 21,0 38,-7 49,-21 11,-14 17,-35 17,-63 0,-27 -6,-48 -17,-63 -11,-14 -28,-21 -49,-21 -21,0 -38,7 -49,21 -11,14 -16,35 -16,63zm320 -112c10,0 18,1 26,2l-5 30c-9,-2 -17,-3 -24,-3 -17,0 -32,7 -45,21 -12,14 -19,32 -19,53l0 116 -33 0 0 -216 27 0 4 40 2 0c8,-14 18,-25 29,-33 11,-8 24,-11 37,-11zm239 4l0 21 -40 5c4,5 7,11 10,18 3,7 4,16 4,25 0,21 -7,38 -22,51 -14,13 -34,19 -60,19 -6,0 -13,-1 -18,-2 -14,7 -21,17 -21,28 0,6 2,10 7,13 5,3 13,4 25,4l38 0c23,0 41,5 54,15 13,10 19,24 19,43 0,24 -10,42 -29,55 -19,12 -47,19 -84,19 -28,0 -50,-5 -65,-16 -15,-10 -23,-25 -23,-44 0,-13 4,-24 13,-34 8,-10 20,-16 35,-19 -6,-2 -10,-6 -14,-12 -4,-5 -6,-11 -6,-18 0,-8 2,-15 6,-21 4,-6 11,-12 20,-17 -11,-5 -20,-12 -27,-23 -7,-11 -11,-24 -11,-38 0,-24 7,-42 21,-55 14,-13 34,-19 60,-19 11,0 21,1 31,4l75 0zm-172 252c0,12 5,21 15,27 10,6 24,9 42,9 27,0 48,-4 61,-12 13,-8 20,-19 20,-33 0,-12 -4,-20 -11,-24 -7,-5 -21,-7 -41,-7l-39 0c-15,0 -26,3 -35,11 -8,7 -12,17 -12,30zm18 -183c0,15 4,27 13,34 9,8 20,12 36,12 32,0 48,-15 48,-46 0,-32 -16,-49 -48,-49 -15,0 -27,4 -36,12 -8,8 -12,20 -12,37zm290 151c-32,0 -57,-10 -76,-29 -19,-19 -28,-46 -28,-81 0,-35 9,-62 26,-83 17,-20 40,-31 69,-31 27,0 49,9 64,27 16,18 24,41 24,70l0 21 -149 0c1,25 7,45 19,58 12,13 29,20 51,20 23,0 46,-5 69,-15l0 29c-12,5 -22,9 -33,11 -10,2 -23,3 -37,3zm-9 -196c-17,0 -31,6 -41,17 -10,11 -16,27 -18,47l113 0c0,-21 -5,-36 -14,-47 -9,-11 -22,-16 -39,-16zm396 163l-2 0c-15,22 -38,33 -68,33 -28,0 -50,-10 -66,-29 -16,-19 -24,-47 -24,-82 0,-36 8,-63 24,-83 16,-20 38,-30 66,-30 29,0 52,11 67,32l3 0 -1 -16 -1 -15 0 -88 33 0 0 306 -27 0 -4 -29zm-65 6c22,0 38,-6 49,-18 10,-12 15,-32 15,-59l0 -7c0,-31 -5,-52 -15,-65 -10,-13 -26,-20 -49,-20 -19,0 -34,7 -44,22 -10,15 -15,36 -15,63 0,28 5,48 15,62 10,14 25,21 45,21zm299 23l-6 -31 -2 0c-11,14 -22,23 -32,27 -11,5 -24,7 -40,7 -21,0 -38,-6 -50,-17 -12,-11 -18,-27 -18,-47 0,-44 35,-66 105,-68l37 -1 0 -13c0,-17 -4,-29 -11,-37 -7,-8 -19,-12 -35,-12 -18,0 -38,6 -61,17l-10 -25c11,-6 22,-10 35,-14 13,-3 25,-5 38,-5 26,0 45,6 57,17 12,11 19,30 19,55l0 147 -24 0zm-74 -23c20,0 36,-6 48,-17 12,-11 17,-27 17,-47l0 -19 -33 1c-26,1 -45,5 -56,12 -12,7 -17,18 -17,33 0,12 4,21 11,27 7,6 17,9 30,9zm438 -54c0,25 -9,45 -28,59 -18,14 -43,21 -75,21 -34,0 -60,-4 -79,-13l0 -32c12,5 25,9 39,12 14,3 28,4 41,4 22,0 39,-4 50,-13 11,-8 17,-20 17,-35 0,-10 -2,-18 -6,-25 -4,-6 -11,-12 -20,-18 -9,-5 -24,-11 -43,-18 -27,-10 -46,-21 -57,-34 -12,-13 -17,-30 -17,-51 0,-22 8,-40 25,-53 17,-13 39,-20 66,-20 29,0 55,5 79,16l-10 29c-24,-10 -47,-15 -69,-15 -18,0 -32,4 -42,11 -10,8 -15,18 -15,32 0,10 2,18 6,25 4,6 10,12 19,18 9,5 22,11 40,18 30,11 51,22 62,35 11,12 17,28 17,48zm87 77l-33 0 0 -216 33 0 0 216zm-35 -274c0,-7 2,-13 6,-16 4,-3 8,-5 14,-5 5,0 10,2 14,5 4,4 6,9 6,16 0,7 -2,13 -6,16 -4,4 -8,5 -14,5 -6,0 -10,-2 -14,-5 -4,-4 -6,-9 -6,-16zm138 274l-33 0 0 -306 33 0 0 306zm117 0l-82 -216 35 0 47 128c11,30 17,49 19,58l2 0c1,-7 6,-21 14,-43 8,-22 25,-69 52,-143l35 0 -82 216 -38 0zm288 0l-6 -31 -2 0c-11,14 -22,23 -32,27 -11,5 -24,7 -40,7 -21,0 -38,-6 -50,-17 -12,-11 -18,-27 -18,-47 0,-44 35,-66 105,-68l37 -1 0 -13c0,-17 -4,-29 -11,-37 -7,-8 -19,-12 -35,-12 -18,0 -38,6 -61,17l-10 -25c11,-6 22,-10 35,-14 13,-3 25,-5 38,-5 26,0 45,6 57,17 12,11 19,30 19,55l0 147 -24 0zm-74 -23c20,0 36,-6 48,-17 12,-11 17,-27 17,-47l0 -19 -33 1c-26,1 -45,5 -56,12 -12,7 -17,18 -17,33 0,12 4,21 11,27 7,6 17,9 30,9z"/>
    <g>
     <path class="fil2" d="M988 3817l-100 -262 -2 0c2,21 3,45 3,74l0 188 -32 0 0 -296 52 0 94 244 2 0 95 -244 51 0 0 296 -34 0 0 -190c0,-22 1,-46 3,-71l-2 0 -101 262 -28 0zm375 0l-7 -32 -2 0c-11,14 -22,23 -33,28 -11,5 -25,7 -41,7 -22,0 -39,-6 -52,-17 -12,-11 -19,-27 -19,-48 0,-45 36,-68 108,-70l38 -1 0 -14c0,-17 -4,-30 -11,-39 -7,-8 -19,-12 -36,-12 -18,0 -39,6 -63,17l-10 -26c11,-6 23,-11 36,-14 13,-3 26,-5 39,-5 26,0 46,6 59,18 13,12 19,31 19,56l0 151 -25 0zm-76 -24c21,0 37,-6 49,-17 12,-11 18,-27 18,-48l0 -20 -34 1c-27,1 -46,5 -58,12 -12,7 -18,19 -18,34 0,12 4,21 11,28 7,6 18,9 31,9zm242 0c6,0 12,0 17,-1 6,-1 10,-2 13,-3l0 26c-4,2 -9,3 -16,4 -7,1 -13,2 -19,2 -43,0 -64,-23 -64,-68l0 -132 -32 0 0 -16 32 -14 14 -47 19 0 0 51 64 0 0 26 -64 0 0 130c0,13 3,24 10,31 6,7 15,11 26,11zm266 -87c0,36 -9,64 -27,85 -18,20 -43,30 -76,30 -20,0 -37,-5 -53,-14 -15,-9 -27,-23 -36,-40 -8,-17 -13,-38 -13,-61 0,-36 9,-64 27,-84 18,-20 43,-30 75,-30 31,0 56,10 74,31 18,21 27,49 27,84zm-169 0c0,28 6,50 17,65 11,15 28,22 50,22 22,0 39,-7 50,-22 11,-15 17,-36 17,-65 0,-28 -6,-50 -17,-64 -11,-15 -28,-22 -51,-22 -22,0 -39,7 -50,22 -11,14 -17,36 -17,65zm471 -44l101 0 0 144c-16,5 -32,9 -48,11 -16,3 -35,4 -56,4 -45,0 -80,-13 -105,-40 -25,-27 -37,-64 -37,-112 0,-31 6,-58 19,-81 12,-23 30,-41 53,-53 23,-12 50,-18 82,-18 32,0 61,6 88,17l-13 30c-27,-11 -52,-17 -77,-17 -36,0 -64,11 -84,32 -20,21 -30,51 -30,89 0,40 10,70 29,91 20,21 48,31 86,31 20,0 41,-2 60,-7l0 -91 -66 0 0 -31zm268 -71c10,0 19,1 27,2l-5 31c-9,-2 -17,-3 -24,-3 -18,0 -33,7 -46,22 -13,15 -19,33 -19,54l0 119 -34 0 0 -222 28 0 4 41 2 0c8,-14 18,-26 30,-33 12,-8 24,-12 38,-12zm251 115c0,36 -9,64 -27,85 -18,20 -43,30 -76,30 -20,0 -37,-5 -53,-14 -15,-9 -27,-23 -36,-40 -8,-17 -13,-38 -13,-61 0,-36 9,-64 27,-84 18,-20 43,-30 75,-30 31,0 56,10 74,31 18,21 27,49 27,84zm-169 0c0,28 6,50 17,65 11,15 28,22 50,22 22,0 39,-7 50,-22 11,-15 17,-36 17,-65 0,-28 -6,-50 -17,-64 -11,-15 -28,-22 -51,-22 -22,0 -39,7 -50,22 -11,14 -17,36 -17,65zm371 51c0,21 -8,37 -23,48 -15,11 -37,17 -65,17 -29,0 -52,-5 -69,-14l0 -31c11,5 22,10 34,13 12,3 24,5 35,5 18,0 31,-3 41,-8 9,-6 14,-14 14,-26 0,-9 -4,-16 -11,-22 -8,-6 -22,-13 -44,-22 -21,-8 -35,-14 -44,-20 -9,-6 -15,-12 -19,-20 -4,-7 -6,-16 -6,-26 0,-18 7,-32 22,-43 15,-10 35,-16 61,-16 24,0 47,5 70,15l-12 27c-22,-9 -43,-14 -61,-14 -16,0 -28,2 -36,7 -8,5 -12,12 -12,21 0,6 2,11 5,15 3,4 8,8 15,12 7,4 20,9 39,16 26,10 44,19 53,29 9,10 14,22 14,37zm198 0c0,21 -8,37 -23,48 -15,11 -37,17 -65,17 -29,0 -52,-5 -69,-14l0 -31c11,5 22,10 34,13 12,3 24,5 35,5 18,0 31,-3 41,-8 9,-6 14,-14 14,-26 0,-9 -4,-16 -11,-22 -8,-6 -22,-13 -44,-22 -21,-8 -35,-14 -44,-20 -9,-6 -15,-12 -19,-20 -4,-7 -6,-16 -6,-26 0,-18 7,-32 22,-43 15,-10 35,-16 61,-16 24,0 47,5 70,15l-12 27c-22,-9 -43,-14 -61,-14 -16,0 -28,2 -36,7 -8,5 -12,12 -12,21 0,6 2,11 5,15 3,4 8,8 15,12 7,4 20,9 39,16 26,10 44,19 53,29 9,10 14,22 14,37zm246 -51c0,36 -9,64 -27,85 -18,20 -43,30 -76,30 -20,0 -37,-5 -53,-14 -15,-9 -27,-23 -36,-40 -8,-17 -13,-38 -13,-61 0,-36 9,-64 27,-84 18,-20 43,-30 75,-30 31,0 56,10 74,31 18,21 27,49 27,84zm-169 0c0,28 6,50 17,65 11,15 28,22 50,22 22,0 39,-7 50,-22 11,-15 17,-36 17,-65 0,-28 -6,-50 -17,-64 -11,-15 -28,-22 -51,-22 -22,0 -39,7 -50,22 -11,14 -17,36 -17,65z"/>
     <polygon class="fil2" points="615,2871 615,2479 698,2479 698,2871 "/>
     <path class="fil2" d="M1145 2871l-106 0 -171 -296 -2 0c3,52 5,90 5,112l0 184 -74 0 0 -392 105 0 170 293 2 0c-3,-51 -4,-87 -4,-108l0 -185 75 0 0 392zm331 -109c0,35 -13,63 -38,84 -25,20 -61,31 -106,31 -42,0 -79,-8 -111,-24l0 -77c26,12 49,20 67,25 18,5 35,7 50,7 18,0 32,-3 42,-11 10,-7 15,-17 15,-31 0,-8 -2,-14 -7,-20 -4,-6 -11,-12 -19,-17 -8,-5 -25,-14 -51,-27 -24,-11 -42,-22 -54,-32 -12,-10 -22,-22 -29,-36 -7,-14 -11,-30 -11,-48 0,-35 12,-62 35,-82 24,-20 56,-30 98,-30 20,0 40,2 58,7 19,5 38,12 58,20l-27 65c-21,-9 -38,-15 -52,-18 -14,-3 -27,-5 -40,-5 -16,0 -28,4 -36,11 -8,7 -13,17 -13,29 0,7 2,14 5,19 3,5 9,11 16,16 7,5 25,14 53,27 37,18 62,35 75,53 14,18 20,39 20,65z"/>
     <path class="fil2" d="M1699 2871l-83 0 0 -323 -107 0 0 -69 296 0 0 69 -107 0 0 323zm168 0l0 -392 83 0 0 392 -83 0zm334 0l-83 0 0 -323 -107 0 0 -69 296 0 0 69 -107 0 0 323z"/>
     <path class="fil2" d="M2685 2479l0 253c0,29 -6,54 -19,76 -13,22 -32,39 -56,50 -24,12 -53,17 -87,17 -50,0 -90,-13 -118,-39 -28,-26 -42,-61 -42,-106l0 -252 83 0 0 240c0,30 6,52 18,66 12,14 32,21 60,21 27,0 47,-7 59,-21 12,-14 18,-36 18,-67l0 -239 83 0z"/>
     <path class="fil2" d="M2937 2871l-83 0 0 -323 -107 0 0 -69 296 0 0 69 -107 0 0 323zm512 -196c0,65 -16,115 -48,149 -32,35 -78,52 -138,52 -60,0 -106,-17 -138,-52 -32,-35 -48,-85 -48,-150 0,-65 16,-115 48,-149 32,-34 79,-52 139,-52 60,0 106,17 138,52 32,35 48,84 48,150zm-286 0c0,44 8,77 25,99 17,22 41,33 75,33 66,0 100,-44 100,-132 0,-88 -33,-132 -99,-132 -33,0 -58,11 -75,33 -17,22 -25,55 -25,99z"/>
     <polygon class="fil2" points="970,3341 888,3341 888,2950 1113,2950 1113,3018 970,3018 970,3119 1103,3119 1103,3187 970,3187 "/>
     <path class="fil2" d="M1416 3341l-226 0 0 -392 226 0 0 68 -143 0 0 86 133 0 0 68 -133 0 0 101 143 0 0 69zm408 -200c0,64 -18,114 -55,148 -37,34 -90,51 -159,51l-111 0 0 -392 123 0c64,0 114,17 149,51 35,34 53,81 53,141zm-86 2c0,-84 -37,-126 -112,-126l-44 0 0 255 36 0c80,0 120,-43 120,-129zm394 197l-226 0 0 -392 226 0 0 68 -143 0 0 86 133 0 0 68 -133 0 0 101 143 0 0 69zm166 -218l27 0c26,0 46,-4 58,-13 13,-9 19,-22 19,-41 0,-19 -6,-32 -19,-40 -13,-8 -33,-12 -59,-12l-25 0 0 106zm0 67l0 150 -83 0 0 -392 114 0c53,0 93,10 118,29 26,19 38,49 38,88 0,23 -6,44 -19,61 -13,18 -31,32 -54,42 59,88 98,145 115,171l-92 0 -94 -150 -44 0z"/>
     <path class="fil2" d="M2816 3341l-28 -93 -143 0 -28 93 -90 0 138 -393 102 0 139 393 -90 0zm-48 -163c-26,-84 -41,-132 -44,-143 -3,-11 -6,-20 -7,-26 -6,23 -23,79 -51,170l102 0z"/>
     <polygon class="fil2" points="2958,3341 2958,2950 3041,2950 3041,3273 3200,3273 3200,3341 "/>
    </g>
    <g>
     <path class="fil1" d="M2214 748c0,21 -17,38 -38,38l-317 0c-21,0 -38,-17 -38,-38l0 -317c0,-21 17,-38 38,-38l317 0c21,0 38,17 38,38l0 317z"/>
     <path class="fil1" d="M2686 748c0,21 -17,38 -38,38l-317 0c-21,0 -38,-17 -38,-38l0 -317c0,-21 17,-38 38,-38l317 0c21,0 38,17 38,38l0 317z"/>
     <path class="fil1" d="M2686 1692c0,21 -17,38 -38,38l-317 0c-21,0 -38,-17 -38,-38l0 -317c0,-21 17,-38 38,-38l317 0c21,0 38,17 38,38l0 317z"/>
     <path class="fil1" d="M1741 1220c0,21 -17,38 -38,38l-317 0c-21,0 -38,-17 -38,-38l0 -317c0,-21 17,-38 38,-38l317 0c21,0 38,17 38,38l0 317z"/>
     <path class="fil1" d="M2214 1220c0,21 -17,38 -38,38l-317 0c-21,0 -38,-17 -38,-38l0 -317c0,-21 17,-38 38,-38l317 0c21,0 38,17 38,38l0 317z"/>
     <path class="fil1" d="M1741 1692c0,21 -17,38 -38,38l-317 0c-21,0 -38,-17 -38,-38l0 -317c0,-21 17,-38 38,-38l317 0c21,0 38,17 38,38l0 317z"/>
     <path class="fil1" d="M2214 1692c0,21 -17,38 -38,38l-317 0c-21,0 -38,-17 -38,-38l0 -317c0,-21 17,-38 38,-38l317 0c21,0 38,17 38,38l0 317z"/>
     <path class="fil1" d="M1741 2165c0,21 -17,38 -38,38l-317 0c-21,0 -38,-17 -38,-38l0 -317c0,-21 17,-38 38,-38l317 0c21,0 38,17 38,38l0 317z"/>
     <path class="fil1" d="M2214 2165c0,21 -17,38 -38,38l-317 0c-21,0 -38,-17 -38,-38l0 -317c0,-21 17,-38 38,-38l317 0c21,0 38,17 38,38l0 317z"/>
     <path class="fil3" d="M1761 589c0,120 -97,217 -217,217 -120,0 -216,-97 -216,-217 0,-120 97,-217 216,-217 120,0 217,97 217,217z"/>
    </g>
   </g>
  </g>
 </g>
</svg>
